<svg class="icon icon-console" xmlns="http://www.w3.org/2000/svg" xmlns:xlink="http://www.w3.org/1999/xlink" x="0px" y="0px" viewBox="0 0 48 48" style="enable-background:new 0 0 48 48;" xml:space="preserve">
	<path style="fill:#1E1E1E;" d="M40,43.7H8c-2.2,0-4-2.1-4-4.7V8.1c0-2.6,1.8-4.7,4-4.7h32c2.2,0,4,2.1,4,4.7v30.8C44,41.5,42.2,43.7,40,43.7z"/>
	<path style="fill:#0085BF;" d="M11.508,36.837c-0.51,0-1.015-0.232-1.345-0.671c-0.556-0.742-0.406-1.795,0.336-2.351l7.729-5.797l-7.729-5.797c-0.742-0.557-0.892-1.609-0.336-2.351c0.557-0.742,1.609-0.892,2.351-0.336l9.519,7.14c0.423,0.316,0.671,0.814,0.671,1.343s-0.249,1.026-0.671,1.343l-9.519,7.139C12.212,36.728,11.859,36.837,11.508,36.837z"/>
	<path style="fill:#0085BF;" d="M36.495,36.944H24.596c-0.927,0-1.679-0.752-1.679-1.679c0-0.927,0.752-1.679,1.679-1.679h11.899c0.927,0,1.679,0.752,1.679,1.679C38.174,36.193,37.422,36.944,36.495,36.944z"/>
	<path style="fill:#3E7689;" d="M44.001,13.765V8.1c0-2.6-1.8-4.7-4-4.7h-32c-2.2,0-4,2.1-4,4.7v5.665H44.001z"/>
</svg>
