<svg class="logo logo-wvision" xmlns="http://www.w3.org/2000/svg" xmlns:xlink="http://www.w3.org/1999/xlink" x="0px" y="0px"
	 viewBox="0 0 354.33 102.05" style="enable-background:new 0 0 354.33 102.05;" xml:space="preserve">
<path style="fill:#0D64AB;" d="M151.413,73.151c-0.416,1.145-1.249,1.664-1.977,1.664c-0.728,0-1.457-0.519-1.977-1.664
	l-19.773-51.475c-0.521-1.455,0.519-2.808,2.08-2.808c0.728,0,1.457,0.416,1.873,1.353L149.435,66.6l17.797-46.379
	c0.416-0.936,1.145-1.353,1.873-1.353c1.561,0,2.601,1.353,2.08,2.808L151.413,73.151z"/>
<path style="fill:#0069A5;" d="M181.899,20.948c0-1.353,1.04-2.08,2.082-2.08c1.04,0,2.082,0.728,2.082,2.08v51.475
	c0,1.353-1.042,2.08-2.082,2.08c-1.042,0-2.082-0.728-2.082-2.08V20.948z"/>
<path style="fill:#0D64AB;" d="M214.054,75.543c-4.995,0-11.967-2.183-14.985-6.758c-0.313-0.416-0.416-0.832-0.416-1.144
	c0-1.145,1.04-2.08,2.185-2.08c1.145,0,1.561,0.832,2.186,1.56c2.809,2.911,7.077,4.263,11.03,4.263
	c8.43,0,14.154-4.991,14.154-11.231c0-15.807-29.243-10.191-29.243-28.495c0-9.046,7.91-13.83,15.819-13.83
	c5.514,0,11.967,2.911,14.985,7.695c0.312,0.416,0.416,0.832,0.416,1.144c0,1.144-1.145,2.08-2.185,2.08
	c-1.249,0-1.665-0.936-2.394-1.769c-2.706-3.12-6.556-4.991-10.823-4.991c-6.557,0-11.657,3.744-11.657,9.671
	c0,14.143,29.245,8.84,29.245,28.495C232.371,69.512,223.941,75.543,214.054,75.543z"/>
<path style="fill:#0D64AB;" d="M244.96,20.948c0-1.353,1.04-2.08,2.082-2.08c1.04,0,2.082,0.728,2.082,2.08v51.475
	c0,1.353-1.042,2.08-2.082,2.08c-1.042,0-2.082-0.728-2.082-2.08V20.948z"/>
<path style="fill:#0D64AB;" d="M282.528,75.543c-10.615,0-19.253-8.631-19.253-19.238V37.067c0-10.607,8.638-19.238,19.253-19.238
	c10.615,0,19.252,8.631,19.252,19.238v19.237C301.779,66.911,293.143,75.543,282.528,75.543z M297.617,37.067
	c0-8.32-6.765-15.079-15.089-15.079c-8.326,0-15.091,6.76-15.091,15.079v19.237c0,8.32,6.765,15.079,15.091,15.079
	c8.325,0,15.089-6.76,15.089-15.079V37.067z"/>
<path style="fill:#0D64AB;" d="M352.249,74.503c-1.04,0-2.08-0.728-2.08-2.08V37.067c0-8.32-6.765-15.079-15.091-15.079
	c-8.325,0-15.089,6.76-15.089,15.079v35.356c0,1.353-1.042,2.08-2.082,2.08s-2.082-0.728-2.082-2.08V37.067
	c0-10.607,8.638-19.238,19.253-19.238c10.615,0,19.253,8.631,19.253,19.238v35.356C354.331,73.776,353.29,74.503,352.249,74.503z"/>
<polygon style="fill:#A19F9D;" points="0,18.924 12.495,18.924 12.495,74.427 0,74.427 0,18.924 "/>
<path style="fill:#A19F9D;" d="M16.185,10.94V0.001h21.39v50.948c0,7.188,5.944,12.981,12.991,12.981
	c7.146,0,13.242-5.399,13.242-13.03V18.924h12.086l0.005,32.025c-0.058,7.287,5.87,12.981,13.157,12.981
	c7.013,0,13.198-5.694,13.198-12.981V18.924h12.013l-0.002,32.025c0,15.646-11.802,24.297-23.463,24.297
	c-8.884,0-15.72-2.783-20.751-10.586c-5.22,7.768-11.934,10.586-20.818,10.586c-11.661,0-23.72-8.651-23.72-24.297V10.945
	L16.185,10.94L16.185,10.94z"/>
<g>
	<path style="fill:#A19F9D;" d="M196.56,91.044l-2.863,10.414c-0.129,0.429-0.415,0.658-0.687,0.658
		c-0.286,0-0.573-0.215-0.688-0.644l-2.477-8.14l-2.462,8.14c-0.13,0.429-0.401,0.644-0.688,0.644c-0.286,0-0.573-0.229-0.687-0.658
		l-2.863-10.414c-0.014-0.071-0.029-0.143-0.029-0.215c0-0.429,0.372-0.686,0.744-0.686c0.287,0,0.559,0.157,0.673,0.529
		l2.205,8.025l2.433-8.039c0.115-0.43,0.401-0.645,0.673-0.645c0.287,0,0.559,0.215,0.688,0.645l2.434,8.039l2.204-8.025
		c0.1-0.372,0.386-0.529,0.673-0.529c0.372,0,0.744,0.257,0.744,0.686C196.589,90.9,196.575,90.973,196.56,91.044z"/>
	<path style="fill:#A19F9D;" d="M206.831,101.873h-5.368c-0.387,0-0.716-0.329-0.716-0.715v-10.3c0-0.387,0.329-0.715,0.716-0.715
		h5.368c0.473,0,0.716,0.357,0.716,0.715s-0.243,0.716-0.716,0.716h-4.652v3.461h4.223c0.473,0,0.716,0.358,0.716,0.715
		c0,0.358-0.243,0.716-0.716,0.716h-4.223v3.976h4.652c0.473,0,0.716,0.358,0.716,0.716
		C207.547,101.515,207.304,101.873,206.831,101.873z"/>
	<path style="fill:#A19F9D;" d="M215.827,101.873h-2.977c-0.387,0-0.716-0.329-0.716-0.715v-10.3c0-0.387,0.329-0.715,0.716-0.715
		h2.977c1.761,0,3.193,1.431,3.193,3.176c0,0.958-0.53,1.973-1.432,2.446c0.801,0.472,1.646,1.544,1.646,2.703
		C219.234,100.356,217.703,101.873,215.827,101.873z M215.827,95.078c0.974,0,1.761-0.786,1.761-1.745
		c0-0.973-0.788-1.759-1.761-1.759h-2.262v3.504H215.827z M215.827,96.508h-2.262v3.934h2.262c1.088,0,1.976-0.887,1.976-1.96
		C217.803,97.395,216.915,96.508,215.827,96.508z"/>
	<path style="fill:#A19F9D;" d="M229.904,101.873h-5.368c-0.387,0-0.716-0.329-0.716-0.715v-10.3c0-0.387,0.329-0.715,0.716-0.715
		h5.368c0.473,0,0.716,0.357,0.716,0.715s-0.243,0.716-0.716,0.716h-4.652v3.461h4.223c0.473,0,0.716,0.358,0.716,0.715
		c0,0.358-0.243,0.716-0.716,0.716h-4.223v3.976h4.652c0.473,0,0.716,0.358,0.716,0.716
		C230.62,101.515,230.377,101.873,229.904,101.873z"/>
	<path style="fill:#A19F9D;" d="M242.878,101.158c0,0.529-0.3,0.829-0.644,0.829c-0.243,0-0.487-0.143-0.687-0.458l-4.91-8.111
		v7.739c0,0.472-0.358,0.715-0.715,0.715c-0.358,0-0.716-0.243-0.716-0.715v-10.3c0-0.529,0.301-0.829,0.644-0.829
		c0.243,0,0.487,0.143,0.688,0.458l4.91,8.111v-7.739c0-0.472,0.357-0.715,0.715-0.715s0.715,0.243,0.715,0.715V101.158z"/>
	<path style="fill:#A19F9D;" d="M254.48,91.574h-2.72v9.584c0,0.472-0.358,0.715-0.716,0.715c-0.357,0-0.715-0.243-0.715-0.715
		v-9.584h-2.72c-0.473,0-0.716-0.358-0.716-0.716s0.243-0.715,0.716-0.715h6.871c0.472,0,0.715,0.357,0.715,0.715
		S254.952,91.574,254.48,91.574z"/>
	<path style="fill:#A19F9D;" d="M271.792,91.044l-2.863,10.414c-0.129,0.429-0.415,0.658-0.687,0.658
		c-0.286,0-0.573-0.215-0.688-0.644l-2.477-8.14l-2.462,8.14c-0.129,0.429-0.401,0.644-0.688,0.644
		c-0.286,0-0.573-0.229-0.687-0.658l-2.863-10.414c-0.015-0.071-0.029-0.143-0.029-0.215c0-0.429,0.372-0.686,0.744-0.686
		c0.287,0,0.559,0.157,0.673,0.529l2.205,8.025l2.433-8.039c0.115-0.43,0.401-0.645,0.673-0.645c0.287,0,0.559,0.215,0.688,0.645
		l2.434,8.039l2.204-8.025c0.1-0.372,0.386-0.529,0.673-0.529c0.372,0,0.744,0.257,0.744,0.686
		C271.821,90.9,271.807,90.973,271.792,91.044z"/>
	<path style="fill:#A19F9D;" d="M280.704,101.873h-4.581c-0.473,0-0.716-0.358-0.716-0.715c0-0.358,0.243-0.716,0.716-0.716h1.574
		v-8.868h-1.574c-0.473,0-0.716-0.358-0.716-0.716s0.243-0.715,0.716-0.715h4.581c0.472,0,0.715,0.357,0.715,0.715
		s-0.243,0.716-0.715,0.716h-1.575v8.868h1.575c0.472,0,0.715,0.358,0.715,0.716C281.419,101.515,281.176,101.873,280.704,101.873z"
		/>
	<path style="fill:#A19F9D;" d="M292.948,100.542c0,0-0.086,0.115-0.243,0.258c-0.844,0.801-1.99,1.216-3.149,1.216
		c-2.204,0-3.979-1.774-3.979-3.977v-4.062c0-2.203,1.775-3.976,3.979-3.976c1.146,0,2.649,0.515,3.393,1.473
		c0.115,0.143,0.172,0.301,0.172,0.444c0,0.4-0.358,0.73-0.745,0.73c-0.186,0-0.386-0.086-0.543-0.287l-0.115-0.114
		c-0.573-0.544-1.374-0.816-2.162-0.816c-1.403,0-2.548,1.144-2.548,2.546v4.062c0,1.402,1.145,2.547,2.548,2.547
		c0.773,0,1.761-0.301,2.277-0.93c0.157-0.186,0.343-0.272,0.543-0.272c0.387,0,0.774,0.329,0.774,0.716
		C293.148,100.242,293.091,100.399,292.948,100.542z"/>
	<path style="fill:#A19F9D;" d="M305.135,101.886c-0.2,0-0.401-0.085-0.558-0.3l-3.807-5.107l-1.604,1.846v2.833
		c0,0.472-0.358,0.715-0.715,0.715c-0.358,0-0.716-0.243-0.716-0.715v-10.3c0-0.472,0.358-0.715,0.716-0.715
		c0.357,0,0.715,0.243,0.715,0.715v5.293l4.997-5.765c0.157-0.187,0.343-0.258,0.529-0.258c0.387,0,0.744,0.343,0.744,0.73
		c0,0.157-0.057,0.314-0.186,0.473l-3.507,4.034l3.98,5.364c0.114,0.142,0.157,0.3,0.157,0.429
		C305.88,101.558,305.508,101.886,305.135,101.886z"/>
	<path style="fill:#A19F9D;" d="M316.264,101.873h-5.368c-0.387,0-0.716-0.329-0.716-0.715v-10.3c0-0.472,0.358-0.715,0.716-0.715
		c0.357,0,0.715,0.243,0.715,0.715v9.584h4.652c0.473,0,0.716,0.358,0.716,0.716C316.98,101.515,316.737,101.873,316.264,101.873z"
		/>
	<path style="fill:#A19F9D;" d="M329.096,98.039c0,2.204-1.775,3.977-3.979,3.977s-3.98-1.774-3.98-3.977v-7.181
		c0-0.472,0.358-0.715,0.716-0.715c0.358,0,0.715,0.243,0.715,0.715v7.181c0,1.402,1.146,2.547,2.549,2.547s2.548-1.145,2.548-2.547
		v-7.181c0-0.472,0.358-0.715,0.716-0.715c0.357,0,0.715,0.243,0.715,0.715V98.039z"/>
	<path style="fill:#A19F9D;" d="M341.641,101.158c0,0.529-0.3,0.829-0.644,0.829c-0.243,0-0.487-0.143-0.687-0.458l-4.91-8.111
		v7.739c0,0.472-0.358,0.715-0.715,0.715c-0.358,0-0.716-0.243-0.716-0.715v-10.3c0-0.529,0.301-0.829,0.644-0.829
		c0.243,0,0.487,0.143,0.688,0.458l4.91,8.111v-7.739c0-0.472,0.357-0.715,0.715-0.715s0.715,0.243,0.715,0.715V101.158z"/>
	<path style="fill:#A19F9D;" d="M354.331,98.039c0,2.204-1.775,3.977-3.979,3.977s-3.979-1.774-3.979-3.977v-4.062
		c0-2.203,1.775-3.976,3.979-3.976c1.146,0,2.649,0.515,3.393,1.473c0.115,0.143,0.172,0.301,0.172,0.444
		c0,0.4-0.358,0.73-0.745,0.73c-0.186,0-0.386-0.086-0.543-0.287l-0.115-0.114c-0.573-0.544-1.374-0.816-2.162-0.816
		c-1.403,0-2.548,1.144-2.548,2.546v4.062c0,1.402,1.145,2.547,2.548,2.547s2.549-1.145,2.549-2.547V96.78h-2.434
		c-0.473,0-0.716-0.358-0.716-0.715c0-0.358,0.243-0.716,0.716-0.716h3.149c0.387,0,0.715,0.329,0.715,0.716V98.039z"/>
</g>
</svg>
