<svg xmlns="http://www.w3.org/2000/svg" width="300" height="86.457" viewBox="0 0 300 86.457"><path d="M300 83.005a3.36 3.36 0 0 1-3.369 3.367 3.361 3.361 0 0 1-3.369-3.367v-3.439a3.36 3.36 0 0 1 3.369-3.366c.97 0 2.243.436 2.873 1.247a.614.614 0 0 1 .146.376c0 .339-.303.618-.631.618a.585.585 0 0 1-.46-.243l-.097-.097c-.485-.461-1.163-.691-1.831-.691a2.161 2.161 0 0 0-2.157 2.156v3.439c0 1.187.969 2.156 2.157 2.156a2.162 2.162 0 0 0 2.158-2.156v-1.066h-2.061c-.4 0-.606-.303-.606-.605 0-.303.206-.606.606-.606h2.666c.328 0 .605.279.605.606l.001 1.671zM289.256 85.646c0 .448-.254.702-.545.702-.206 0-.412-.121-.582-.388l-4.157-6.867v6.552c0 .4-.303.605-.605.605-.303 0-.606-.206-.606-.605v-8.721c0-.448.255-.702.545-.702.206 0 .412.121.583.388l4.157 6.867v-6.552c0-.4.302-.605.605-.605s.605.206.605.605v8.721zM278.634 83.005c0 1.866-1.503 3.367-3.369 3.367s-3.37-1.502-3.37-3.367v-6.08c0-.4.303-.605.606-.605s.605.206.605.605v6.08c0 1.187.97 2.156 2.158 2.156a2.161 2.161 0 0 0 2.157-2.156v-6.08c0-.4.303-.605.606-.605.302 0 .605.206.605.605v6.08zM267.77 86.252h-4.545a.615.615 0 0 1-.606-.605v-8.721c0-.4.303-.605.606-.605.302 0 .605.206.605.605v8.114h3.939c.4 0 .606.303.606.606.001.302-.205.606-.605.606zM258.347 86.263a.57.57 0 0 1-.472-.254l-3.223-4.324-1.358 1.563v2.399c0 .4-.303.605-.605.605-.303 0-.606-.206-.606-.605v-8.721c0-.4.303-.605.606-.605.302 0 .605.206.605.605v4.481l4.231-4.881a.567.567 0 0 1 .448-.218c.328 0 .63.29.63.618a.621.621 0 0 1-.158.4l-2.969 3.415 3.37 4.542c.097.12.133.254.133.363-.001.339-.316.617-.632.617zM248.029 85.125s-.073.097-.206.218c-.715.678-1.685 1.03-2.666 1.03a3.361 3.361 0 0 1-3.369-3.367v-3.439a3.36 3.36 0 0 1 3.369-3.366c.97 0 2.243.436 2.873 1.247a.614.614 0 0 1 .146.376c0 .339-.303.618-.631.618a.585.585 0 0 1-.46-.243l-.097-.097c-.485-.461-1.163-.691-1.83-.691a2.161 2.161 0 0 0-2.157 2.156v3.439c0 1.187.969 2.156 2.157 2.156.654 0 1.491-.255 1.928-.787a.59.59 0 0 1 .46-.23c.328 0 .655.279.655.606a.545.545 0 0 1-.172.374zM237.663 86.252h-3.879c-.4 0-.606-.303-.606-.605 0-.303.206-.606.606-.606h1.333v-7.508h-1.333c-.4 0-.606-.303-.606-.606s.206-.605.606-.605h3.879c.4 0 .605.302.605.605s-.206.606-.605.606h-1.334v7.508h1.334c.4 0 .605.303.605.606 0 .301-.206.605-.605.605zM230.117 77.083l-2.424 8.817c-.109.363-.351.557-.582.557-.242 0-.485-.182-.582-.545l-2.097-6.892-2.084 6.892c-.109.363-.34.545-.583.545-.242 0-.485-.194-.582-.557l-2.424-8.817a.867.867 0 0 1-.025-.182c0-.363.315-.581.63-.581.243 0 .473.133.57.448l1.867 6.794 2.06-6.806c.097-.364.34-.546.57-.546.243 0 .473.182.583.546l2.061 6.806 1.866-6.794a.57.57 0 0 1 .57-.448c.315 0 .63.218.63.581a.812.812 0 0 1-.024.182zM215.46 77.532h-2.303v8.114c0 .4-.303.605-.606.605-.302 0-.605-.206-.605-.605v-8.114h-2.303c-.4 0-.606-.303-.606-.606s.206-.605.606-.605h5.817c.4 0 .605.302.605.605s-.206.606-.605.606zM205.637 85.646c0 .448-.254.702-.545.702-.206 0-.412-.121-.582-.388l-4.157-6.867v6.552c0 .4-.303.605-.605.605-.303 0-.606-.206-.606-.605v-8.721c0-.448.255-.702.545-.702.206 0 .412.121.583.388l4.157 6.867v-6.552c0-.4.302-.605.605-.605s.605.206.605.605v8.721zM194.652 86.252h-4.545a.615.615 0 0 1-.606-.605v-8.721c0-.328.279-.605.606-.605h4.545c.4 0 .606.302.606.605s-.206.606-.606.606h-3.939v2.93h3.575c.4 0 .606.303.606.605 0 .303-.206.606-.606.606h-3.575v3.366h3.939c.4 0 .606.303.606.606s-.206.607-.606.607zM182.733 86.252h-2.521a.615.615 0 0 1-.606-.605v-8.721c0-.328.279-.605.606-.605h2.521a2.702 2.702 0 0 1 2.703 2.689c0 .811-.449 1.67-1.212 2.071.678.4 1.394 1.307 1.394 2.289a2.883 2.883 0 0 1-2.885 2.882zm0-5.754c.825 0 1.491-.665 1.491-1.477 0-.824-.667-1.489-1.491-1.489h-1.915v2.967l1.915-.001zm0 1.211h-1.915v3.331h1.915c.921 0 1.673-.751 1.673-1.659 0-.921-.751-1.672-1.673-1.672zM175.117 86.252h-4.545a.615.615 0 0 1-.606-.605v-8.721c0-.328.279-.605.606-.605h4.545c.4 0 .606.302.606.605s-.206.606-.606.606h-3.939v2.93h3.575c.4 0 .606.303.606.605 0 .303-.206.606-.606.606h-3.575v3.366h3.939c.4 0 .606.303.606.606s-.206.607-.606.607zM166.421 77.083l-2.424 8.817c-.109.363-.351.557-.582.557-.242 0-.485-.182-.583-.545l-2.097-6.892-2.084 6.892c-.11.363-.34.545-.583.545-.242 0-.485-.194-.582-.557l-2.424-8.817c-.012-.06-.025-.121-.025-.182 0-.363.315-.581.63-.581.243 0 .473.133.57.448l1.867 6.794 2.06-6.806c.097-.364.34-.546.57-.546.243 0 .473.182.583.546l2.061 6.806 1.866-6.794a.57.57 0 0 1 .57-.448c.315 0 .63.218.63.581a.872.872 0 0 1-.023.182z" fill="#a19f9d"/><path d="M298.237 63.078c-.881 0-1.761-.616-1.761-1.761V31.383c0-7.044-5.728-12.767-12.777-12.767-7.049 0-12.775 5.723-12.775 12.767v29.935c0 1.146-.882 1.761-1.763 1.761-.881 0-1.763-.616-1.763-1.761V31.383c0-8.981 7.313-16.288 16.301-16.288 8.987 0 16.301 7.308 16.301 16.288v29.935c0 1.145-.881 1.76-1.763 1.76zM239.207 63.959c-8.987 0-16.301-7.308-16.301-16.288V31.383c0-8.981 7.313-16.288 16.301-16.288s16.3 7.308 16.3 16.288V47.67c-.001 8.98-7.313 16.289-16.3 16.289zm12.775-32.576c0-7.044-5.728-12.767-12.775-12.767-7.049 0-12.777 5.723-12.777 12.767V47.67c0 7.044 5.728 12.767 12.777 12.767 7.049 0 12.775-5.723 12.775-12.767V31.383zM207.399 17.735c0-1.146.881-1.761 1.763-1.761.881 0 1.763.616 1.763 1.761v43.582c0 1.146-.882 1.761-1.763 1.761-.882 0-1.763-.616-1.763-1.761V17.735zM181.232 63.959c-4.229 0-10.132-1.848-12.687-5.722-.265-.352-.352-.704-.352-.969 0-.969.881-1.761 1.85-1.761.969 0 1.322.704 1.851 1.321 2.378 2.465 5.992 3.609 9.339 3.609 7.137 0 11.984-4.226 11.984-9.509 0-13.383-24.759-8.628-24.759-24.126 0-7.659 6.697-11.709 13.393-11.709 4.669 0 10.132 2.465 12.687 6.515.264.352.352.704.352.969 0 .969-.969 1.761-1.85 1.761-1.057 0-1.41-.792-2.027-1.498-2.291-2.642-5.551-4.226-9.163-4.226-5.552 0-9.87 3.17-9.87 8.188 0 11.974 24.761 7.485 24.761 24.126 0 7.925-7.138 13.031-15.509 13.031z" fill="#0d64ab"/><path d="M154.008 17.735c0-1.146.881-1.761 1.763-1.761.881 0 1.763.616 1.763 1.761v43.582c0 1.146-.882 1.761-1.763 1.761-.882 0-1.763-.616-1.763-1.761V17.735z" fill="#0069a5"/><path d="M128.196 61.934c-.352.969-1.057 1.409-1.674 1.409-.616 0-1.234-.439-1.674-1.409l-16.741-43.582c-.441-1.232.439-2.377 1.761-2.377.616 0 1.234.352 1.586 1.146l15.067 39.268L141.59 17.12c.352-.792.969-1.146 1.586-1.146 1.322 0 2.202 1.146 1.761 2.377l-16.741 43.583z" fill="#0d64ab"/><path d="M13.703 9.262V0h18.11v43.136c0 6.086 5.033 10.991 10.999 10.991 6.05 0 11.212-4.571 11.212-11.032V16.021h10.233l.004 27.114c-.049 6.17 4.97 10.991 11.14 10.991 5.938 0 11.174-4.821 11.174-10.991V16.021h10.171l-.002 27.114c0 13.247-9.992 20.571-19.865 20.571-7.522 0-13.31-2.356-17.569-8.963-4.42 6.577-10.104 8.963-17.626 8.963-9.873 0-20.083-7.325-20.083-20.571V9.266l-7.898-.004zM0 16.021h10.579v46.993H0z" fill="#a19f9d"/></svg>
