<svg xmlns="http://www.w3.org/2000/svg" width="24" height="24" viewBox="0 0 24 24"><linearGradient id="a" gradientUnits="userSpaceOnUse" x1="3.515" y1="22.485" x2="20.485" y2="5.515" gradientTransform="matrix(1 0 0 -1 0 26)"><stop offset="0" stop-color="#007bc1"/><stop offset="1" stop-color="#004a8b"/></linearGradient><path d="M12 24c6.627 0 12-5.373 12-12S18.627 0 12 0 0 5.373 0 12s5.373 12 12 12" fill="url(#a)"/><path d="M6.84 8.637V7.259h2.696v6.42c0 .906.749 1.636 1.637 1.636.9 0 1.669-.68 1.669-1.642v-4.03h1.523l.001 4.036c-.007.918.74 1.636 1.658 1.636.884 0 1.663-.718 1.663-1.636V9.643H19.2v4.036c0 1.972-1.487 3.062-2.957 3.062-1.12 0-1.981-.351-2.615-1.334-.658.979-1.504 1.334-2.623 1.334-1.47 0-2.989-1.09-2.989-3.062V8.638L6.84 8.637zM4.8 9.643h1.575v6.995H4.8z" fill="#fff"/></svg>
